<svg width="65" height="65" viewBox="0 0 65 65" fill="none" xmlns="http://www.w3.org/2000/svg">
<mask id="mask0_12_908" style="mask-type:alpha" maskUnits="userSpaceOnUse" x="0" y="0" width="65" height="65">
<circle cx="32.5" cy="32.5" r="32.5" fill="#D9D9D9"/>
</mask>
<g mask="url(#mask0_12_908)">
<rect x="-10.1562" y="-6.09375" width="84.6354" height="71.0938" fill="#374D59"/>
<path d="M32.2196 33.9834C32.9818 33.9834 33.5996 33.3655 33.5996 32.6034C33.5996 31.8412 32.9818 31.2234 32.2196 31.2234C31.4574 31.2234 30.8396 31.8412 30.8396 32.6034C30.8396 33.3655 31.4574 33.9834 32.2196 33.9834Z" fill="#CBCBCB"/>
<path d="M32.2195 22.0505C26.3913 22.0505 21.6666 26.7753 21.6666 32.6034C21.6666 38.4316 26.3913 43.1564 32.2195 43.1564C38.0477 43.1564 42.7724 38.4316 42.7724 32.6034C42.7724 26.7753 38.0477 22.0505 32.2195 22.0505ZM28.1959 24.6751C29.4038 24.061 30.7713 23.7147 32.2195 23.7147C32.3046 23.7147 32.3889 23.7158 32.4732 23.7181C32.6132 23.7219 32.7093 24.0698 32.6883 24.4905L32.5807 26.6559C32.5598 27.0766 32.4705 27.4134 32.3813 27.4107C32.3275 27.4092 32.2737 27.4084 32.2195 27.4084C31.4578 27.4084 30.7343 27.5724 30.0824 27.8669C29.6983 28.0404 29.2387 27.9371 29.0243 27.5743L27.9197 25.7065C27.7054 25.3438 27.8202 24.8662 28.1959 24.6751ZM27.7641 28.6473L26.1324 27.22C25.815 26.9427 25.7822 26.4594 26.087 26.1688C26.0942 26.1619 26.1011 26.1554 26.1087 26.1486C26.4146 25.8587 26.8941 25.9178 27.1527 26.25L28.4854 27.9603C28.7444 28.2926 28.8046 28.6809 28.6345 28.843C28.464 29.0058 28.0814 28.9246 27.7641 28.6473ZM28.4854 32.6034C28.4854 30.5411 30.1572 28.8693 32.2195 28.8693C34.2819 28.8693 35.9537 30.5411 35.9537 32.6034C35.9537 34.6658 34.2819 36.3376 32.2195 36.3376C30.1572 36.3376 28.4854 34.6658 28.4854 32.6034ZM36.2256 40.5405C35.0219 41.1493 33.6606 41.4922 32.2195 41.4922C32.1249 41.4922 32.0307 41.4907 31.9369 41.488C31.7809 41.483 31.673 41.1337 31.6958 40.7129L31.8141 38.548C31.8373 38.1273 31.9369 37.7924 32.0376 37.7958C32.0979 37.7977 32.1585 37.7988 32.2195 37.7988C32.9191 37.7988 33.5858 37.6608 34.1949 37.4106C34.5848 37.2504 35.0627 37.3556 35.2923 37.7088L36.4751 39.5282C36.7047 39.8811 36.6017 40.3502 36.2256 40.5405ZM38.304 39.0835C38.0119 39.3581 37.5393 39.2937 37.273 38.9672L35.9037 37.2862C35.6375 36.9597 35.5696 36.5813 35.7378 36.4261C35.9064 36.2709 36.2882 36.3578 36.6052 36.6355L38.2377 38.0636C38.555 38.3409 38.5966 38.8089 38.304 39.0835Z" fill="#CBCBCB"/>
<path d="M6.49041 21.6667C0.662222 21.6667 -4.0625 26.3915 -4.0625 32.2197C-4.0625 38.0478 0.662222 42.7726 6.49041 42.7726C12.3186 42.7726 17.0433 38.0478 17.0433 32.2197C17.0433 26.3915 12.3186 21.6667 6.49041 21.6667ZM2.46675 24.2913C3.67472 23.6772 5.04214 23.3309 6.49041 23.3309C6.57547 23.3309 6.65976 23.3321 6.74406 23.3343C6.88404 23.3382 6.98016 23.686 6.95918 24.1067L6.85162 26.2721C6.83064 26.6928 6.74139 27.0296 6.65213 27.0269C6.59835 27.0254 6.54457 27.0246 6.49041 27.0246C5.7287 27.0246 5.00514 27.1887 4.35328 27.4831C3.96918 27.6567 3.50957 27.5533 3.29521 27.1906L2.1906 25.3227C1.97623 24.96 2.09104 24.4824 2.46675 24.2913ZM2.03497 28.2635L0.403234 26.8362C0.0858879 26.5589 0.0530849 26.0756 0.357844 25.785C0.365091 25.7781 0.371957 25.7717 0.379585 25.7648C0.685489 25.4749 1.16494 25.534 1.42355 25.8662L2.75625 27.5766C3.01524 27.9088 3.0755 28.2971 2.90539 28.4592C2.73489 28.622 2.35232 28.5408 2.03497 28.2635ZM2.75625 32.2197C2.75625 30.1573 4.42804 28.4855 6.49041 28.4855C8.55278 28.4855 10.2246 30.1573 10.2246 32.2197C10.2246 34.282 8.55278 35.9538 6.49041 35.9538C4.42804 35.9538 2.75625 34.282 2.75625 32.2197ZM10.4965 40.1567C9.29274 40.7655 7.93144 41.1084 6.49041 41.1084C6.39582 41.1084 6.3016 41.1069 6.20777 41.1042C6.05177 41.0993 5.94383 40.7499 5.96671 40.3292L6.08495 38.1642C6.10822 37.7435 6.20777 37.4086 6.30847 37.412C6.36873 37.4139 6.42938 37.4151 6.49041 37.4151C7.18994 37.4151 7.85668 37.277 8.46581 37.0268C8.85563 36.8666 9.33356 36.9718 9.56318 37.325L10.746 39.1444C10.9756 39.4973 10.8726 39.9664 10.4965 40.1567ZM12.5749 38.6997C12.2827 38.9743 11.8102 38.9099 11.5439 38.5834L10.1746 36.9024C9.90837 36.5759 9.84047 36.1975 10.0087 36.0423C10.1773 35.8871 10.5591 35.974 10.876 36.2517L12.5085 37.6798C12.8259 37.9571 12.8675 38.4251 12.5749 38.6997Z" fill="#CBCBCB"/>
<path d="M57.9488 22.3438C52.1206 22.3438 47.3959 27.0685 47.3959 32.8967C47.3959 38.7248 52.1206 43.4496 57.9488 43.4496C63.777 43.4496 68.5017 38.7248 68.5017 32.8967C68.5017 27.0685 63.777 22.3438 57.9488 22.3438ZM53.9251 24.9683C55.1331 24.3542 56.5005 24.0079 57.9488 24.0079C58.0338 24.0079 58.1181 24.0091 58.2024 24.0113C58.3424 24.0152 58.4385 24.363 58.4176 24.7837L58.31 26.9491C58.289 27.3698 58.1998 27.7066 58.1105 27.7039C58.0567 27.7024 58.0029 27.7016 57.9488 27.7016C57.1871 27.7016 56.4635 27.8657 55.8117 28.1601C55.4276 28.3337 54.9679 28.2303 54.7536 27.8676L53.649 25.9997C53.4346 25.637 53.5494 25.1594 53.9251 24.9683ZM53.4933 28.9405L51.8616 27.5132C51.5443 27.2359 51.5115 26.7527 51.8162 26.462C51.8235 26.4551 51.8303 26.4487 51.838 26.4418C52.1439 26.1519 52.6233 26.211 52.8819 26.5432L54.2146 28.2536C54.4736 28.5858 54.5339 28.9741 54.3638 29.1362C54.1933 29.2991 53.8107 29.2178 53.4933 28.9405ZM54.2146 32.8967C54.2146 30.8343 55.8864 29.1625 57.9488 29.1625C60.0112 29.1625 61.6829 30.8343 61.6829 32.8967C61.6829 34.959 60.0112 36.6308 57.9488 36.6308C55.8864 36.6308 54.2146 34.959 54.2146 32.8967ZM61.9549 40.8337C60.7511 41.4425 59.3898 41.7854 57.9488 41.7854C57.8542 41.7854 57.76 41.7839 57.6661 41.7812C57.5101 41.7763 57.4022 41.4269 57.4251 41.0062L57.5433 38.8412C57.5666 38.4205 57.6661 38.0856 57.7668 38.089C57.8271 38.0909 57.8878 38.0921 57.9488 38.0921C58.6483 38.0921 59.3151 37.954 59.9242 37.7038C60.314 37.5436 60.7919 37.6488 61.0216 38.002L62.2044 39.8214C62.434 40.1743 62.331 40.6434 61.9549 40.8337ZM64.0333 39.3767C63.7411 39.6513 63.2685 39.5869 63.0023 39.2604L61.633 37.5794C61.3667 37.2529 61.2988 36.8745 61.4671 36.7193C61.6356 36.5641 62.0175 36.651 62.3344 36.9287L63.9669 38.3568C64.2843 38.6341 64.3258 39.1021 64.0333 39.3767Z" fill="#CBCBCB"/>
<path d="M34.6453 27.4184C34.6313 27.4344 34.6094 27.4412 34.5887 27.4357C34.5682 27.4302 34.5524 27.4137 34.5481 27.3929L34.332 26.339C34.3268 26.3141 34.3058 26.2959 34.2806 26.2942L33.2067 26.2272C33.1855 26.2257 33.1668 26.2125 33.1586 26.1928C33.1503 26.1732 33.154 26.1505 33.168 26.1344L36.7357 22.0293C36.756 22.0061 36.7915 22.0036 36.8147 22.0238L38.2075 23.2343C38.2307 23.2545 38.2333 23.2899 38.213 23.3134L34.6453 27.4184Z" fill="#EA514F"/>
<path d="M38.2074 23.2342L36.8147 22.0236C36.7914 22.0034 36.7559 22.0059 36.7356 22.0292L34.1387 25.0202L35.2329 26.7449L38.213 23.3132C38.2332 23.2898 38.2307 23.2544 38.2074 23.2342Z" fill="#D43736"/>
<path d="M39.1428 28.4244C39.1485 28.4447 39.1654 28.4602 39.1864 28.4641C39.2074 28.4678 39.2287 28.4596 39.2416 28.4427L39.8862 27.5812C39.9012 27.5608 39.9281 27.5533 39.9516 27.5626L40.9517 27.9594C40.9715 27.9672 40.9941 27.9632 41.01 27.9489C41.0258 27.9346 41.0321 27.9125 41.0262 27.892L39.5474 22.6582C39.5389 22.6285 39.5079 22.6111 39.4782 22.6195L37.7024 23.1214C37.6727 23.1297 37.6554 23.1607 37.6637 23.1905L39.1428 28.4244Z" fill="#D43736"/>
<path d="M33.308 23.3563C33.1974 23.8507 33.5687 24.0576 33.962 24.0355C34.2778 24.0176 37.4429 23.8228 37.4429 23.8228L37.807 22.1947C37.807 22.1947 35.0266 20.67 34.7484 20.5194C34.402 20.3318 33.978 20.3607 33.8674 20.8552L33.308 23.3563Z" fill="#EA514F"/>
<path d="M36.7084 23.7617C36.7021 23.79 36.7432 23.828 36.7454 23.8554C37.1323 23.8307 37.4428 23.8228 37.4428 23.8228L37.8069 22.1947C37.8069 22.1947 37.5863 22.0665 37.1355 21.8521L36.7084 23.7617Z" fill="#E63C32"/>
<path d="M42.3325 25.3748C42.2219 25.8692 41.8572 25.9115 41.5109 25.724C41.2328 25.5732 38.5116 24.0619 38.5116 24.0619L38.8757 22.4338C38.8757 22.4338 41.9815 22.2256 42.2973 22.2079C42.6905 22.1857 43.0024 22.3792 42.8919 22.8737L42.3325 25.3748Z" fill="#EA514F"/>
<path d="M38.8757 22.4338L38.5116 24.0619C38.5116 24.0619 40.1352 24.9696 41.0057 25.4489L39.0952 22.4147C38.9471 22.4244 38.8757 22.4338 38.8757 22.4338Z" fill="#E63C32"/>
<path d="M38.6248 24.1129C38.595 24.2462 38.5477 24.3841 38.4146 24.3543L37.1608 24.0739C37.0275 24.0441 36.9326 23.8744 36.9624 23.7411L37.3399 22.0535C37.3697 21.9201 37.5055 21.9067 37.6389 21.9365L38.8926 22.217C39.0258 22.2467 39.0321 22.2919 39.0022 22.4253L38.6248 24.1129Z" fill="#EA514F"/>
</g>
</svg>
