<svg width="65" height="65" viewBox="0 0 65 65" fill="none" xmlns="http://www.w3.org/2000/svg">
<mask id="mask0_12_933" style="mask-type:alpha" maskUnits="userSpaceOnUse" x="0" y="0" width="65" height="65">
<circle cx="32.5" cy="32.5" r="32.5" fill="#D9D9D9"/>
</mask>
<g mask="url(#mask0_12_933)">
<rect x="-10.1562" y="-6.09375" width="84.6354" height="74.4792" fill="#374D59"/>
<path d="M47.5569 50.1912H17.1442C16.6502 50.1912 16.2506 49.7902 16.2506 49.295V26.9338C16.2506 22.6329 17.9252 18.5901 20.9663 15.5489C24.0061 12.5078 28.0496 10.8333 32.3512 10.8333C36.6515 10.8333 40.695 12.5078 43.7349 15.5489C46.776 18.5901 48.4518 22.6329 48.4518 26.9338V49.295C48.4518 49.7902 48.0509 50.1912 47.5569 50.1912Z" fill="#E6E9ED"/>
<path d="M21.6169 27.8276H16.25V34.9834H21.6169V27.8276Z" fill="#FFCE54"/>
<path d="M32.351 10.8333C30.6411 10.8333 28.9744 11.0986 27.3929 11.6076L31.008 17.4862L33.8905 17.1645L37.3077 11.6076C35.7262 11.0986 34.0596 10.8333 32.351 10.8333Z" fill="#FFCE54"/>
<path d="M48.4518 27.8276H43.085V34.9834H48.4518V27.8276Z" fill="#FFCE54"/>
<path d="M21.6174 51.9784H43.0849V26.9339C43.0849 24.067 41.9672 21.3711 39.9402 19.3442C37.9132 17.3164 35.218 16.2002 32.3511 16.2002C29.4829 16.2002 26.7877 17.3165 24.7607 19.3442C22.7337 21.3711 21.6174 24.067 21.6174 26.9339V51.9784Z" fill="#ED5564"/>
<path d="M32.3509 10.8333C32.0509 10.8333 31.7521 10.8418 31.4561 10.8582V13.5167C31.4561 14.0107 31.8556 14.4109 32.3509 14.4109C32.845 14.4109 33.2445 14.0107 33.2445 13.5167V10.8582C32.9485 10.8417 32.6497 10.8333 32.3509 10.8333Z" fill="#F6BB42"/>
<path d="M32.3509 50.1912C31.8556 50.1912 31.4561 49.7903 31.4561 49.295V47.5079C31.4561 47.0126 31.8556 46.6116 32.3509 46.6116C32.845 46.6116 33.2445 47.0125 33.2445 47.5079V49.2951C33.2445 49.7903 32.845 50.1912 32.3509 50.1912Z" fill="#F6BB42"/>
<path d="M26.9841 26.0397C26.9841 26.5337 26.5832 26.9339 26.0892 26.9339C25.5951 26.9339 25.1942 26.5337 25.1942 26.0397C25.1942 25.5457 25.5951 25.1448 26.0892 25.1448C26.5832 25.1448 26.9841 25.5457 26.9841 26.0397Z" fill="#E6E9ED"/>
<path d="M26.9841 28.7231C26.9841 29.2171 26.5832 29.6173 26.0892 29.6173C25.5951 29.6173 25.1942 29.2171 25.1942 28.7231C25.1942 28.2291 25.5951 27.8281 26.0892 27.8281C26.5832 27.8281 26.9841 28.2291 26.9841 28.7231Z" fill="#E6E9ED"/>
<path d="M30.5613 29.6173H27.8779C27.3838 29.6173 26.9843 29.2171 26.9843 28.7231C26.9843 28.2291 27.3839 27.8281 27.8779 27.8281H30.5613C31.0553 27.8281 31.4562 28.2291 31.4562 28.7231C31.4562 29.2171 31.0553 29.6173 30.5613 29.6173Z" fill="#434A54"/>
<path d="M30.5613 26.9339H27.8779C27.3838 26.9339 26.9843 26.5337 26.9843 26.0397C26.9843 25.5457 27.3839 25.1448 27.8779 25.1448H30.5613C31.0553 25.1448 31.4562 25.5457 31.4562 26.0397C31.4562 26.5337 31.0553 26.9339 30.5613 26.9339Z" fill="#434A54"/>
<path d="M35.0344 26.0397C35.0344 26.5337 34.6336 26.9339 34.1396 26.9339C33.6456 26.9339 33.2446 26.5337 33.2446 26.0397C33.2446 25.5457 33.6456 25.1448 34.1396 25.1448C34.6336 25.1448 35.0344 25.5457 35.0344 26.0397Z" fill="#E6E9ED"/>
<path d="M35.0344 28.7231C35.0344 29.2171 34.6336 29.6173 34.1396 29.6173C33.6456 29.6173 33.2446 29.2171 33.2446 28.7231C33.2446 28.2291 33.6456 27.8281 34.1396 27.8281C34.6336 27.8281 35.0344 28.2291 35.0344 28.7231Z" fill="#E6E9ED"/>
<path d="M38.6115 29.6173H35.928C35.434 29.6173 35.0344 29.2171 35.0344 28.7231C35.0344 28.2291 35.4341 27.8281 35.928 27.8281H38.6115C39.1055 27.8281 39.5065 28.2291 39.5065 28.7231C39.5065 29.2171 39.1055 29.6173 38.6115 29.6173Z" fill="#434A54"/>
<path d="M38.6115 26.9339H35.928C35.434 26.9339 35.0344 26.5337 35.0344 26.0397C35.0344 25.5457 35.4341 25.1448 35.928 25.1448H38.6115C39.1055 25.1448 39.5065 25.5457 39.5065 26.0397C39.5065 26.5337 39.1055 26.9339 38.6115 26.9339Z" fill="#434A54"/>
<path d="M25.1943 49.2949H23.4058C22.9118 49.2949 22.5109 48.8953 22.5109 48.4013C22.5109 47.9074 22.9118 47.5078 23.4058 47.5078H25.1943C25.6883 47.5078 26.0892 47.9074 26.0892 48.4013C26.0892 48.8953 25.6883 49.2949 25.1943 49.2949Z" fill="#434A54"/>
<path d="M22.2252 23.3563H42.4755C41.95 21.8638 41.0919 20.4959 39.9402 19.3442C37.9131 17.3164 35.2179 16.2002 32.351 16.2002C29.4828 16.2002 26.7876 17.3165 24.7606 19.3442C23.6089 20.4958 22.7507 21.8638 22.2252 23.3563Z" fill="#5D9CEC"/>
<path d="M32.3431 18.8835C29.8733 18.8835 27.8712 20.8856 27.8712 23.3562H36.8151C36.8151 20.8856 34.813 18.8835 32.3431 18.8835Z" fill="#434A54"/>
<path d="M32.351 21.5669C31.3618 21.5669 30.5612 22.3682 30.5612 23.3561H34.1395C34.1395 22.3682 33.3389 21.5669 32.351 21.5669Z" fill="#F6BB42"/>
<path d="M38.0796 31.4065L26.0892 31.113L25.7538 42.8851L27.8778 45.9696L30.5612 47.5079H34.1396L36.8151 45.718L38.6115 42.141L38.0796 31.4065Z" fill="#FFCE54"/>
<path d="M16.2506 44.8242V52.8746C16.2506 53.3672 16.6503 53.7682 17.1442 53.7682H20.7226C21.2166 53.7682 21.6175 53.3672 21.6175 52.8746V44.8242H16.2506Z" fill="#656D78"/>
<path d="M43.0847 44.8242V52.8746C43.0847 53.3672 43.4844 53.7682 43.9783 53.7682H47.5567C48.0506 53.7682 48.4516 53.3672 48.4516 52.8746V44.8242H43.0847Z" fill="#656D78"/>
<path d="M21.6169 34.0906H16.25V35.8778H21.6169V34.0906Z" fill="#F6BB42"/>
<path d="M21.6169 30.5112H16.25V32.3005H21.6169V30.5112Z" fill="#F6BB42"/>
<path d="M21.6169 26.9338H16.25V28.7231H21.6169V26.9338Z" fill="#F6BB42"/>
<path d="M48.4518 34.0906H43.085V35.8778H48.4518V34.0906Z" fill="#F6BB42"/>
<path d="M48.4518 30.5112H43.085V32.3005H48.4518V30.5112Z" fill="#F6BB42"/>
<path d="M48.4518 26.9338H43.085V28.7231H48.4518V26.9338Z" fill="#F6BB42"/>
<path d="M38.6115 30.5117H26.0892C25.5951 30.5117 25.1942 30.9127 25.1942 31.4067V41.2448C25.1942 45.1914 28.4044 48.4015 32.3509 48.4015C36.2962 48.4015 39.5064 45.1914 39.5064 41.2448V31.4067C39.5064 30.9127 39.1055 30.5117 38.6115 30.5117ZM37.7139 41.4113L36.7509 40.447L37.7179 39.4812V41.2448C37.7179 41.3012 37.7165 41.3562 37.7139 41.4113ZM27.4637 43.4644L29.2155 41.7113L31.0853 43.5824L29.1304 45.5373C28.4148 44.9988 27.8384 44.2873 27.4637 43.4644ZM26.9841 41.2448V39.4812L27.9498 40.447L26.9868 41.4113C26.9841 41.3562 26.9841 41.3012 26.9841 41.2448ZM30.4799 34.1772L32.3509 32.3061L34.2208 34.1772L32.3509 36.047L30.4799 34.1772ZM31.0853 37.3114L29.2154 39.1824L27.3444 37.3114L29.2154 35.4416L31.0853 37.3114ZM34.8758 32.3009H36.0957L35.4851 32.9115L34.8758 32.3009ZM29.2154 32.9115L28.6049 32.3009H29.826L29.2154 32.9115ZM27.9498 34.1772L26.9841 35.1429V33.2096L27.9498 34.1772ZM30.4799 40.447L32.3509 38.5771L34.2208 40.447L32.3509 42.3167L30.4799 40.447ZM33.6154 37.3114L35.4851 35.4416L37.3562 37.3114L35.4851 39.1824L33.6154 37.3114ZM36.7509 34.1772L37.7179 33.2096V35.1429L36.7509 34.1772ZM30.8101 46.3864L32.3509 44.8481L33.8905 46.3864C33.4018 46.5331 32.8856 46.6118 32.3509 46.6118C31.815 46.6117 31.2988 46.5331 30.8101 46.3864ZM35.5703 45.5373L33.6154 43.5824L35.4851 41.7113L37.237 43.4644C36.8622 44.2873 36.2857 44.9988 35.5703 45.5373Z" fill="#F6BB42"/>
<path d="M25.5374 9.67611L24.9094 8.30585C24.4161 7.22969 24.1695 6.6916 23.8731 6.58145C23.7127 6.52186 23.5439 6.5261 23.3996 6.59332C23.1329 6.71759 23.0236 7.2646 22.8051 8.35861C22.6921 8.9244 22.6356 9.20727 22.4684 9.34256C22.3758 9.41744 22.2624 9.46086 22.1409 9.46787C21.9218 9.48042 21.6746 9.31377 21.1801 8.98045L18.5741 7.22348C17.6399 6.59362 17.1727 6.2787 16.8471 6.46671C16.5214 6.65472 16.5606 7.21675 16.6389 8.34077L16.8575 11.4761C16.899 12.071 16.9197 12.3684 16.7992 12.5519C16.7324 12.6536 16.6381 12.7301 16.5269 12.7729C16.3262 12.85 16.053 12.7575 15.5065 12.5725C14.4498 12.2147 13.9214 12.0358 13.6804 12.2047C13.5501 12.2961 13.462 12.4401 13.4334 12.6088C13.3806 12.9206 13.7233 13.4032 14.4087 14.3684L15.2813 15.5975C16.7192 17.6225 17.4382 18.635 18.442 18.9162C19.4459 19.1975 20.3918 18.6514 22.2836 17.5591L23.7351 16.7211C25.6269 15.6289 26.5728 15.0827 26.8312 14.0727C27.0896 13.0628 26.5722 11.9339 25.5374 9.67611Z" fill="#FFCE54"/>
</g>
</svg>
