<svg width="65" height="65" viewBox="0 0 65 65" fill="none" xmlns="http://www.w3.org/2000/svg">
<mask id="mask0_11_876" style="mask-type:alpha" maskUnits="userSpaceOnUse" x="0" y="0" width="65" height="65">
<circle cx="32.5" cy="32.5" r="32.5" fill="#D9D9D9"/>
</mask>
<g mask="url(#mask0_11_876)">
<rect x="-10.1562" y="-6.09375" width="84.6354" height="54.1667" fill="#374D59"/>
<path d="M31.8228 67.7085C14.7603 67.9793 4.06242 54.8439 0.677002 47.396H63.6458C62.9687 49.4272 54.8437 67.3431 31.8228 67.7085Z" fill="#688FA5"/>
<path d="M34.5818 45.8196H31.0906V54.5476H34.5818V45.8196Z" fill="#FF4F19"/>
<path d="M37.4889 52.2202H28.179C27.2164 52.2202 26.4333 53.0033 26.4333 53.9658V56.2933C26.4333 56.6149 26.6936 56.8752 27.0152 56.8752H38.6526C38.9742 56.8752 39.2345 56.6149 39.2345 56.2933V53.9658C39.2345 53.0032 38.4514 52.2202 37.4889 52.2202Z" fill="#FF9600"/>
<path d="M37.4889 52.2202H32.8362V56.8752H38.6526C38.9742 56.8752 39.2345 56.6149 39.2345 56.2933V53.9658C39.2345 53.0032 38.4514 52.2202 37.4889 52.2202Z" fill="#FFD200"/>
<path d="M24.1077 41.747C23.9548 41.747 23.7992 41.7163 23.6497 41.6521C18.0441 39.2502 14.2541 32.982 14.2188 26.0558C14.2154 25.4297 14.4568 24.8404 14.899 24.396C15.3399 23.9528 15.9269 23.7085 16.5508 23.7085H23.5264C24.1691 23.7085 24.6902 24.2296 24.6902 24.8722C24.6902 25.5149 24.1691 26.036 23.5264 26.036H16.5508C16.577 32.0575 19.8 37.4705 24.5669 39.5133C25.1573 39.7662 25.4312 40.4503 25.1777 41.0413C24.989 41.4822 24.5595 41.747 24.1077 41.747Z" fill="#FF9600"/>
<path d="M41.5649 41.747C41.1131 41.747 40.6836 41.4822 40.4949 41.0413C40.2415 40.4503 40.5153 39.7662 41.1057 39.5133C45.8726 37.4705 49.0956 32.0575 49.1263 26.0445L42.1462 26.036C41.5035 26.036 40.9824 25.5149 40.9824 24.8722C40.9824 24.2296 41.5035 23.7085 42.1462 23.7085H49.1217C49.7457 23.7085 50.3326 23.9528 50.7736 24.396C51.2157 24.8404 51.4571 25.4297 51.4538 26.0564C51.4186 32.982 47.6285 39.2501 42.0229 41.6521C41.8734 41.7163 41.7177 41.747 41.5649 41.747Z" fill="#FF9600"/>
<path d="M42.7257 20.2173H22.9422C22.6206 20.2173 22.3604 20.4775 22.3604 20.7992V36.5096C22.3604 42.2845 27.0591 46.9832 32.834 46.9832C38.6089 46.9832 43.3076 42.2845 43.3076 36.5096V20.7992C43.3076 20.4775 43.0473 20.2173 42.7257 20.2173Z" fill="#FFD200"/>
<path d="M32.8362 20.2173H22.9422C22.6206 20.2173 22.3604 20.4775 22.3604 20.7992V36.5096C22.3604 42.2845 27.0591 46.9832 32.834 46.9832C32.8348 46.9832 32.8355 46.9832 32.8362 46.9832V20.2173Z" fill="#FF9600"/>
<path d="M22.3625 21.963C21.7224 21.963 21.1987 21.4393 21.1987 20.7992C21.1987 20.1592 21.7224 19.6355 22.3625 19.6355H43.3097C43.9498 19.6355 44.4735 20.1592 44.4735 20.7992C44.4735 21.4393 43.9498 21.963 43.3097 21.963H22.3625Z" fill="#FF4F19"/>
<path d="M37.9166 27.0926C33.7122 26.9496 30.2679 28.5382 30.2679 28.5382L30.2661 36.6076C29.8373 36.4343 29.3179 36.3914 28.788 36.5236C27.648 36.8077 26.902 37.7869 27.1216 38.7108C27.3412 39.6346 28.4429 40.1545 29.5829 39.8704C30.6583 39.6024 31.3817 38.7161 31.2771 37.8406V31.8135C31.2771 31.8135 33.7122 30.9415 36.8707 30.7217V35.2049C36.4472 35.0388 35.9364 35.0012 35.417 35.1299C34.277 35.414 33.531 36.3932 33.7488 37.317C33.9667 38.2408 35.0701 38.7608 36.2101 38.4767C37.2054 38.2283 37.9009 37.451 37.9148 36.6416L37.9166 27.0926Z" fill="#F80000"/>
</g>
</svg>
